<svg xmlns="http://www.w3.org/2000/svg" width="512" height="512" viewBox="0 0 512 512" role="img" aria-labelledby="title desc">
<title id="title">FilePilot logo</title>
<desc id="desc">A routed file path through a folder-like container with waypoints and a completion mark.</desc>
<defs>
  <linearGradient id="bg" x1="0" y1="0" x2="1" y2="1"><stop offset="0" stop-color="#FFFDF8"/><stop offset="1" stop-color="#F1EBDD"/></linearGradient>
  <filter id="shadow" x="-30%" y="-30%" width="160%" height="160%"><feDropShadow dx="0" dy="16" stdDeviation="18" flood-color="#18212C" flood-opacity=".12"/></filter>
</defs>
<rect width="512" height="512" rx="118" fill="url(#bg)"/>
<rect x="34" y="34" width="444" height="444" rx="96" fill="none" stroke="#DCD5C7" stroke-width="2"/>
<g filter="url(#shadow)">
  <path d="M115 171c0-20 16-36 36-36h91l37 39h82c20 0 36 16 36 36v151c0 20-16 36-36 36H151c-20 0-36-16-36-36Z" fill="#FFFDF8" stroke="#18212C" stroke-width="10" stroke-linejoin="round"/>
  <path d="M117 205h278" stroke="#3264FF" stroke-width="14" stroke-linecap="round"/>
</g>
<path d="M164 319 C198 263 233 349 272 292 S338 248 368 283" fill="none" stroke="#3264FF" stroke-width="15" stroke-linecap="round" stroke-dasharray="3 26"/>
<circle cx="164" cy="319" r="17" fill="#FF6B4A" stroke="#FFFDF8" stroke-width="7"/>
<circle cx="272" cy="292" r="17" fill="#F6C453" stroke="#FFFDF8" stroke-width="7"/>
<circle cx="368" cy="283" r="23" fill="#36C9A7" stroke="#FFFDF8" stroke-width="8"/>
<path d="M356 283l9 9 19-25" fill="none" stroke="#18212C" stroke-width="7" stroke-linecap="round" stroke-linejoin="round"/>
<path d="M137 405h238" stroke="#D7D0C2" stroke-width="3" stroke-linecap="round"/>
<path d="M212 405h88" stroke="#FF6B4A" stroke-width="3" stroke-linecap="round"/>
</svg>
